<?xml version="1.0" encoding="utf-8"?>
<!-- Generator: Adobe Illustrator 27.2.0, SVG Export Plug-In . SVG Version: 6.00 Build 0)  -->
<svg version="1.1" id="Layer_1" xmlns="http://www.w3.org/2000/svg" xmlns:xlink="http://www.w3.org/1999/xlink" x="0px" y="0px"
	 viewBox="0 0 255.4 81.2" style="enable-background:new 0 0 255.4 81.2;" xml:space="preserve">
<style type="text/css">
	.st0{fill:#3E3F3F;}
</style>
<g>
	<path class="st0" d="M51.2,32.7c0-0.1,0-0.2,0-0.3c-0.5-1-0.9-2-1.3-3c-0.1-0.2-0.2-0.5-0.3-0.7c-4.1,9.8-8.2,19.6-12.3,29.3
		c1.1,0,2.2,0,3.3,0v-0.1c0.7-1.6,1.4-3.3,2.1-4.9c1.5-3.5,3-7.1,4.5-10.7C48.5,39.1,49.9,35.9,51.2,32.7z"/>
	<path class="st0" d="M50.3,27c2.6,6.4,5.3,12.7,7.9,19.1c1.1,0,2.2,0,3.3,0c-3.2-7.7-6.4-15.3-9.6-23C51.3,24.4,50.8,25.7,50.3,27z
		"/>
	<path class="st0" d="M51.7,34.3c-1.1,2.8-2.3,5.5-3.4,8.3c-0.5,1.1-1,2.2-1.4,3.3c0,0.1-0.1,0.1,0,0.2c1.7,0,3.3,0,5,0
		c0-1.7,0-3.3,0-4.9c0.3,0,0.5,0,0.7-0.1c0.2,0,0.5,0,0.7,0s0.4,0,0.7,0c0.3,0,0.5,0,0.8,0c-1-2.3-2-4.7-3-7.1
		C51.8,34.1,51.7,34.2,51.7,34.3z"/>
	<path class="st0" d="M72.5,41.9c-1,1.2-2.2,1.8-3.8,1.8c-2.8,0-4.9-2.3-4.9-5.4c0-3.1,2.2-5.4,4.9-5.4c1.3,0,2.4,0.6,3.1,1.5
		l0.3,0.4l2.4-1.6l-0.3-0.4c-1.2-1.6-3.1-2.5-5.4-2.5c-2.1,0-4.1,0.8-5.5,2.2c-1.5,1.5-2.3,3.6-2.2,5.9c0,4.5,3.3,7.9,7.7,7.9
		c2.5,0,4.4-0.9,5.7-2.7l0.3-0.4l-2-1.7L72.5,41.9z"/>
	<polygon class="st0" points="75.7,32.9 80.5,32.9 80.5,46.2 83.3,46.2 83.3,32.9 88.2,32.9 88.2,30.2 75.7,30.2 	"/>
	<path class="st0" d="M96.8,30.2c-4.6,0-7.9,3.3-7.9,7.9s3.3,7.9,7.9,7.9s7.9-3.3,7.9-7.9C104.6,33.6,101.3,30.2,96.8,30.2z
		 M96.8,43.6c-2.9,0-5.1-2.3-5.1-5.4c0-3.2,2.1-5.4,5.1-5.4c2.9,0,5.1,2.3,5.1,5.4C101.8,41.3,99.7,43.6,96.8,43.6z"/>
	<polygon class="st0" points="116.9,30.2 116.9,41.7 108.9,30.2 105.9,30.2 105.9,46.2 108.7,46.2 108.7,34.8 116.7,46.1 
		119.7,46.1 119.7,30.2 	"/>
</g>
<g>
	<path class="st0" d="M171,32.8c0-0.1,0-0.2,0-0.3c-0.5-1-0.9-2-1.3-3c-0.1-0.2-0.2-0.5-0.3-0.7c-4.1,9.8-8.2,19.6-12.3,29.3
		c1.1,0,2.2,0,3.3,0V58c0.7-1.6,1.4-3.3,2.1-4.9c1.5-3.5,3-7.1,4.5-10.7C168.3,39.2,169.7,36,171,32.8z"/>
	<path class="st0" d="M170.1,27.1c2.6,6.4,5.3,12.7,7.9,19.1c1.1,0,2.2,0,3.3,0c-3.2-7.7-6.4-15.3-9.6-23
		C171.1,24.5,170.6,25.8,170.1,27.1z"/>
	<path class="st0" d="M171.5,34.4c-1.1,2.8-2.3,5.5-3.4,8.3c-0.5,1.1-1,2.2-1.4,3.3c0,0.1-0.1,0.1,0,0.2c1.7,0,3.3,0,5,0
		c0-1.7,0-3.3,0-4.9c0.3,0,0.5,0,0.7-0.1c0.2,0,0.5,0,0.7,0s0.4,0,0.7,0s0.5,0,0.8,0c-1-2.3-2-4.7-3-7.1
		C171.6,34.2,171.5,34.3,171.5,34.4z"/>
	<rect x="202.7" y="30.6" class="st0" width="2.8" height="15.8"/>
	<path class="st0" d="M213,37.1c-2.4-0.8-2.8-1.3-2.8-2.2c0-1.5,1.4-2,2.7-2c1,0,1.8,0.4,2.3,1.1l0.3,0.5l2.3-2l-0.3-0.4
		c-1.1-1.3-2.6-1.9-4.5-1.9c-2.7,0-5.5,1.5-5.5,4.8c0,2.8,1.9,3.9,4,4.6l0.4,0.1c2.5,0.8,3.1,1.1,3.1,2.4c0,1.3-1.4,2.1-2.7,2.1
		c-1.2,0-2.2-0.5-2.7-1.4l-0.3-0.5l-2.3,1.9l0.3,0.4c1,1.4,2.8,2.3,5,2.3c2.8,0,5.7-1.5,5.7-4.8C217.8,38.6,215.2,37.8,213,37.1z"/>
	<polygon class="st0" points="189.1,39.5 182.9,46.4 185.7,46.4 190.4,41.1 194.9,46.4 197.7,46.4 175.3,23.1 	"/>
	<polygon class="st0" points="199.7,30.6 196.9,30.6 191.3,37 192.3,38 176.3,23.1 198.7,46.4 201.4,46.4 192.8,38.4 	"/>
</g>
</svg>
