<?xml version="1.0" encoding="utf-8"?>
<!-- Generator: Adobe Illustrator 27.2.0, SVG Export Plug-In . SVG Version: 6.00 Build 0)  -->
<svg version="1.1" id="Layer_1" xmlns="http://www.w3.org/2000/svg" xmlns:xlink="http://www.w3.org/1999/xlink" x="0px" y="0px"
	 viewBox="0 0 110 35" style="enable-background:new 0 0 110 35;" xml:space="preserve">
<style type="text/css">
	.st0{fill:#3E3F3F;}
</style>
<g>
	<path class="st0" d="M12.3,5.6c0.1,0.2,0.2,0.5,0.3,0.7c0.4,1,0.8,2,1.3,3c0,0.1,0,0.2,0,0.3c-1.3,3.2-2.7,6.4-4,9.6
		c-1.5,3.6-3,7.2-4.5,10.7c-0.7,1.6-1.4,3.3-2.1,4.9v0.1c-1.1,0-2.2,0-3.3,0C4.1,25.2,8.2,15.4,12.3,5.6L12.3,5.6z"/>
	<path class="st0" d="M24.2,23c-1.1,0-2.2,0-3.3,0c-2.6-6.4-5.3-12.7-7.9-19.1c0.5-1.3,1-2.6,1.6-3.9C17.8,7.7,21,15.3,24.2,23z"/>
	<path class="st0" d="M14.6,18.1c0,1.6,0,3.2,0,4.9c-1.7,0-3.3,0-5,0c-0.1-0.1,0-0.1,0-0.2c0.4-1.1,0.9-2.2,1.4-3.3
		c1.1-2.8,2.3-5.5,3.4-8.3c0-0.1,0.1-0.2,0.1-0.3c1,2.4,2,4.8,3,7.1c-0.3,0-0.5,0-0.8,0s-0.5,0-0.7,0s-0.5,0-0.7,0
		C15.1,18.1,14.9,18.1,14.6,18.1z"/>
</g>
<g>
	<path class="st0" d="M38.5,8c-1.1-1.5-2.9-2.3-4.7-2.3c-4.2,0-7.2,3.7-7.2,7.9c0,4.4,3,7.9,7.2,7.9c2.3,0,4.1-0.9,5.5-2.6l1.7,1.4
		c-1.7,2.3-4.1,3.3-7.1,3.3c-5.4,0-9.6-4.1-9.6-9.9C24.2,8,28.2,3.6,33.9,3.6c2.5,0,5.1,0.8,6.7,3L38.5,8z"/>
	<path class="st0" d="M57.9,5.8h-6.5v17.7H49V5.8h-6.5V3.6h15.4V5.8L57.9,5.8z"/>
	<path class="st0" d="M58.9,13.5c0-5.7,4.1-9.9,9.8-9.9s9.8,4.2,9.8,9.9s-4.1,9.9-9.8,9.9S58.9,19.3,58.9,13.5z M76.1,13.5
		c0-4.3-3-7.9-7.4-7.9c-4.4,0-7.4,3.5-7.4,7.9s3,7.9,7.4,7.9C73.1,21.4,76.1,17.9,76.1,13.5z"/>
	<path class="st0" d="M81.5,3.6h3L96,20.1h0.1V3.6h2.4v19.8h-3L84,7h-0.1v16.5h-2.4C81.5,23.4,81.5,3.6,81.5,3.6z"/>
</g>
</svg>
