<?xml version="1.0" encoding="utf-8"?>
<!-- Generator: Adobe Illustrator 27.2.0, SVG Export Plug-In . SVG Version: 6.00 Build 0)  -->
<svg version="1.1" id="Layer_1" xmlns="http://www.w3.org/2000/svg" xmlns:xlink="http://www.w3.org/1999/xlink" x="0px" y="0px"
	 viewBox="0 0 72.61 35" style="enable-background:new 0 0 72.61 35;" xml:space="preserve">
<style type="text/css">
	.st0{fill:#3E3F3F;}
</style>
<g>
	<g>
		<path class="st0" d="M12.32,5.56c0.1,0.24,0.2,0.47,0.3,0.71c0.42,1.01,0.84,2.01,1.26,3.02c0.04,0.1,0.04,0.19,0,0.28
			c-1.34,3.21-2.69,6.43-4.03,9.65c-1.49,3.58-2.98,7.16-4.48,10.74C4.69,31.6,4,33.24,3.32,34.88C3.3,34.92,3.29,34.95,3.27,35
			C2.19,35,1.11,35,0,35c4.1-9.82,8.19-19.63,12.28-29.44C12.29,5.56,12.31,5.56,12.32,5.56z"/>
		<path class="st0" d="M24.18,23.01c-1.1,0-2.18,0-3.28,0c-2.65-6.36-5.3-12.72-7.95-19.09c0.54-1.29,1.08-2.58,1.64-3.92
			C17.8,7.69,20.99,15.34,24.18,23.01z"/>
		<path class="st0" d="M14.63,18.15c0,1.64,0,3.24,0,4.86c-1.67,0-3.33,0-5,0c-0.05-0.08,0.01-0.14,0.03-0.2
			c0.45-1.09,0.91-2.18,1.36-3.26c1.15-2.75,2.29-5.5,3.44-8.26c0.03-0.09,0.07-0.17,0.13-0.3c1,2.39,1.98,4.75,2.98,7.14
			c-0.26,0.02-0.51,0.01-0.75,0.01c-0.24,0-0.48,0-0.72,0c-0.24,0-0.49,0-0.74,0C15.13,18.15,14.89,18.15,14.63,18.15z"/>
	</g>
	<g>
		<path class="st0" d="M34.27,13.6c-0.73-0.99-1.88-1.49-3.06-1.49c-2.73,0-4.67,2.4-4.67,5.08c0,2.83,1.92,5.08,4.67,5.08
			c1.49,0,2.68-0.61,3.54-1.71l1.09,0.92c-1.09,1.47-2.68,2.14-4.63,2.14c-3.51,0-6.22-2.71-6.22-6.43c0-3.59,2.59-6.43,6.22-6.43
			c1.66,0,3.28,0.57,4.32,1.92L34.27,13.6z"/>
		<path class="st0" d="M46.08,12.42h-4.04v10.89h-1.45V12.42h-4.04v-1.35h9.54V12.42z"/>
		<path class="st0" d="M47.08,17.19c0-3.7,2.68-6.43,6.39-6.43c3.71,0,6.39,2.73,6.39,6.43s-2.68,6.43-6.39,6.43
			C49.76,23.62,47.08,20.89,47.08,17.19z M58.31,17.19c0-2.82-1.97-5.08-4.84-5.08s-4.84,2.26-4.84,5.08c0,2.82,1.97,5.08,4.84,5.08
			S58.31,20.01,58.31,17.19z"/>
		<path class="st0" d="M62.21,11.07h1.83l7.08,10.16h0.04V11.07h1.45v12.23h-1.83l-7.08-10.16h-0.04v10.16h-1.45V11.07z"/>
	</g>
</g>
</svg>
