<?xml version="1.0" encoding="utf-8"?>
<!-- Generator: Adobe Illustrator 27.2.0, SVG Export Plug-In . SVG Version: 6.00 Build 0)  -->
<svg version="1.1" id="Layer_1" xmlns="http://www.w3.org/2000/svg" xmlns:xlink="http://www.w3.org/1999/xlink" x="0px" y="0px"
	 viewBox="0 0 97 140" style="enable-background:new 0 0 97 140;" xml:space="preserve">
<style type="text/css">
	.st0{fill:#3E3F3F;}
</style>
<g>
	<path class="st0" d="M49.42,22.23c0.4,0.95,0.8,1.89,1.2,2.84c1.68,4.03,3.35,8.06,5.04,12.08c0.17,0.41,0.16,0.74-0.01,1.14
		C50.27,51.15,44.9,64.03,39.53,76.9c-5.97,14.31-11.94,28.63-17.91,42.95c-2.74,6.56-5.47,13.13-8.21,19.69
		c-0.06,0.14-0.12,0.28-0.21,0.46c-4.31,0-8.64,0-13.07,0c16.39-39.3,32.76-78.53,49.12-117.76C49.3,22.24,49.36,22.23,49.42,22.23z
		"/>
	<path class="st0" d="M96.87,92.03c-4.42,0-8.73,0-13.12,0C73.16,66.6,62.56,41.15,51.95,15.68C54.1,10.53,56.26,5.35,58.5,0
		C71.33,30.77,84.08,61.35,96.87,92.03z"/>
	<path class="st0" d="M58.64,72.62c0,6.55,0,12.98,0,19.45c-6.69,0-13.34,0-19.99,0c-0.19-0.32,0.04-0.55,0.14-0.79
		c1.81-4.35,3.63-8.71,5.44-13.06C48.82,67.21,53.41,56.2,58,45.19c0.14-0.35,0.3-0.68,0.52-1.18c3.99,9.58,7.93,19.02,11.91,28.56
		c-1.06,0.08-2.03,0.03-3,0.04c-0.96,0.01-1.92,0-2.88,0c-0.98,0-1.97,0-2.95,0C60.64,72.62,59.68,72.62,58.64,72.62z"/>
</g>
</svg>
